<?xml version="1.0" encoding="utf-8"?>
<!-- Generator: Adobe Illustrator 24.0.1, SVG Export Plug-In . SVG Version: 6.00 Build 0)  -->
<svg version="1.1" id="Слой_1" xmlns="http://www.w3.org/2000/svg" xmlns:xlink="http://www.w3.org/1999/xlink" x="0px" y="0px"
	 viewBox="0 0 87 42" style="enable-background:new 0 0 87 42;" xml:space="preserve">
<style type="text/css">
	.st0{fill:#E03321;}
	.st1{fill:url(#SVGID_1_);}
	.st2{fill:url(#SVGID_2_);}
</style>
<path class="st0" d="M23,23.5c1-2.1,1.5-4.2,2.6-5.9c2-3,4.8-5.2,8.3-6.8c-2.2,0.6-4.2,1.6-6.1,2.9c-5.9,4.2-9.6,10.9-10.3,16.5
	C19.9,28.4,21.8,26.3,23,23.5z"/>
<linearGradient id="SVGID_1_" gradientUnits="userSpaceOnUse" x1="21.031" y1="41.1636" x2="22.7041" y2="7.0932" gradientTransform="matrix(1 0 0 -1 0 42.9449)">
	<stop  offset="0" style="stop-color:#F2B71D"/>
	<stop  offset="0.175" style="stop-color:#F0A61C"/>
	<stop  offset="0.5399" style="stop-color:#E8761F"/>
	<stop  offset="0.8402" style="stop-color:#E13D21"/>
</linearGradient>
<path class="st1" d="M27.9,13.7c1.8-1.3,3.9-2.2,6.1-2.9c2.5-1.1,5.3-1.8,8.5-2.2c-5.1-0.2-9.3,1-12.9,2.4c-2.9-3.3-8.5-0.5-9.8,2.4
	C17.8,8,14.6,3.5,11.2,0c1.3,4.1,2.9,8.5,2.7,13.7C6.7,13.1,3.3,8,0,3.6c0.8,9.9,3.8,17.5,12,19.9c-1.6,6-5.8,10.1-10,13.2
	c5.9-1.8,11.5-3.4,15.7-6.6C18.3,24.6,22,17.8,27.9,13.7z"/>
<linearGradient id="SVGID_2_" gradientUnits="userSpaceOnUse" x1="47.545" y1="21.9954" x2="57.588" y2="21.9954" gradientTransform="matrix(1 0 0 -1 0 42.9449)">
	<stop  offset="0" style="stop-color:#F2B71D"/>
	<stop  offset="0.175" style="stop-color:#F0A61C"/>
	<stop  offset="0.5399" style="stop-color:#E8761F"/>
	<stop  offset="0.8402" style="stop-color:#E13D21"/>
</linearGradient>
<path class="st2" d="M57.6,15.7h-4.4v11.6H52V15.7h-4.4v-1h10C57.6,14.7,57.6,15.7,57.6,15.7z"/>
<path class="st0" d="M70.8,16.4h-1.1v-1.8h1.1V16.4z M70.8,27.2h-1.1v-9.1h1.1V27.2z"/>
<path class="st0" d="M77.6,19.1c-0.1,0-0.2,0-0.3,0c-1.4,0-2.5,0.8-2.9,2.2c-0.1,0.5-0.2,1.1-0.2,2.2v3.7h-1.1v-9.1h1v2.2
	c0.8-1.7,1.6-2.3,3.5-2.3C77.6,18,77.6,19.1,77.6,19.1z"/>
<path class="st0" d="M86.2,27.2h-1v-1.8c-0.5,1.4-1.8,2.1-3.3,2.1c-2.5,0-4.1-1.9-4.1-4.8c0-2.9,1.6-4.8,4.1-4.8
	c1.4,0,2.7,0.6,3.2,2v-5.2h1.1L86.2,27.2L86.2,27.2z M78.9,22.7c0,2.4,1.2,3.9,3.1,3.9c1.9,0,3.1-1.5,3.1-3.9c0-2-0.9-3.9-3.1-3.9
	C80.1,18.8,78.9,20.3,78.9,22.7z"/>
<path class="st0" d="M65.7,20.4c1-0.5,1.6-1.4,1.6-2.7c0-1.9-1.3-3.1-3.6-3.1h-4.9v12.6h5.5c2.5,0,4.1-1.3,4.1-3.5
	C68.4,21.9,67.4,20.7,65.7,20.4z M67.3,23.6c0,1.7-1.1,2.7-3.2,2.7h-4.4V21h4.4C66.2,21,67.3,21.9,67.3,23.6z M59.8,20.1v-4.5h3.8
	c1.7,0,2.7,0.8,2.7,2.3c0,1.5-1,2.3-2.7,2.3H59.8z"/>
</svg>
